<svg xmlns="http://www.w3.org/2000/svg" viewBox="0 0 400 300"><defs><linearGradient id="grad5" x1="0%" y1="0%" x2="100%" y2="100%"><stop offset="0%" style="stop-color:#1d4ed8;stop-opacity:1" /><stop offset="100%" style="stop-color:#3b82f6;stop-opacity:1" /></linearGradient></defs><ellipse cx="200" cy="220" rx="40" ry="10" fill="url(#grad5)" opacity="0.8"/><rect x="190" y="200" width="20" height="20" fill="url(#grad5)" opacity="0.8"/><path d="M 170 200 Q 170 160 200 160 Q 230 160 230 200" fill="url(#grad5)" opacity="0.8"/><path d="M 170 180 Q 150 180 150 200" fill="none" stroke="#1d4ed8" stroke-width="6" opacity="0.8"/><path d="M 230 180 Q 250 180 250 200" fill="none" stroke="#1d4ed8" stroke-width="6" opacity="0.8"/><polygon points="200,175 205,185 216,186 208,193 210,204 200,198 190,204 192,193 184,186 195,185" fill="#fbbf24" opacity="0.9"/><rect x="120" y="80" width="8" height="15" fill="#60a5fa" opacity="0.6" transform="rotate(20 124 87)"/><rect x="280" y="100" width="8" height="15" fill="#3b82f6" opacity="0.6" transform="rotate(-20 284 107)"/><circle cx="150" cy="60" r="5" fill="#2563eb" opacity="0.5"/><circle cx="250" cy="70" r="6" fill="#1d4ed8" opacity="0.5"/><rect x="100" y="120" width="10" height="10" fill="#60a5fa" opacity="0.5" transform="rotate(45 105 125)"/><rect x="300" y="140" width="10" height="10" fill="#3b82f6" opacity="0.5" transform="rotate(45 305 145)"/></svg>
