<svg xmlns="http://www.w3.org/2000/svg" viewBox="0 0 400 300"><defs><linearGradient id="grad2" x1="0%" y1="0%" x2="100%" y2="100%"><stop offset="0%" style="stop-color:#1e40af;stop-opacity:1" /><stop offset="100%" style="stop-color:#3b82f6;stop-opacity:1" /></linearGradient></defs><rect x="120" y="140" width="160" height="120" rx="5" fill="url(#grad2)" opacity="0.8"/><line x1="200" y1="140" x2="200" y2="260" stroke="#1e40af" stroke-width="3" opacity="0.5"/><line x1="140" y1="170" x2="180" y2="170" stroke="#fff" stroke-width="2" opacity="0.6"/><line x1="140" y1="190" x2="180" y2="190" stroke="#fff" stroke-width="2" opacity="0.6"/><line x1="220" y1="170" x2="260" y2="170" stroke="#fff" stroke-width="2" opacity="0.6"/><line x1="220" y1="190" x2="260" y2="190" stroke="#fff" stroke-width="2" opacity="0.6"/><polygon points="200,80 280,100 200,120 120,100" fill="#2563eb" opacity="0.8"/><rect x="195" y="120" width="10" height="30" fill="#2563eb" opacity="0.8"/><circle cx="200" cy="155" r="8" fill="#2563eb" opacity="0.8"/><polygon points="60,100 63,108 72,108 65,114 68,122 60,116 52,122 55,114 48,108 57,108" fill="#60a5fa" opacity="0.5"/><polygon points="330,180 333,188 342,188 335,194 338,202 330,196 322,202 325,194 318,188 327,188" fill="#3b82f6" opacity="0.5"/></svg>
