<svg xmlns="http://www.w3.org/2000/svg" viewBox="0 0 400 300"><defs><linearGradient id="grad6" x1="0%" y1="0%" x2="100%" y2="100%"><stop offset="0%" style="stop-color:#3b82f6;stop-opacity:1" /><stop offset="100%" style="stop-color:#60a5fa;stop-opacity:1" /></linearGradient></defs><rect x="100" y="120" width="200" height="140" rx="8" fill="url(#grad6)" opacity="0.8"/><polygon points="100,120 200,200 300,120" fill="#2563eb" opacity="0.6"/><polyline points="100,120 200,200 300,120" fill="none" stroke="#1e40af" stroke-width="3"/><polygon points="100,120 200,180 300,120 200,90" fill="#60a5fa" opacity="0.7"/><line x1="140" y1="190" x2="260" y2="190" stroke="#fff" stroke-width="3" opacity="0.5"/><line x1="140" y1="210" x2="240" y2="210" stroke="#fff" stroke-width="3" opacity="0.5"/><line x1="140" y1="230" x2="220" y2="230" stroke="#fff" stroke-width="3" opacity="0.5"/><g transform="translate(320, 80) rotate(-30)"><polygon points="0,0 -20,10 -15,0 -20,-10" fill="#60a5fa" opacity="0.8"/><line x1="0" y1="0" x2="-15" y2="0" stroke="#3b82f6" stroke-width="2"/></g><circle cx="70" cy="100" r="8" fill="#60a5fa" opacity="0.4"/><circle cx="340" cy="200" r="10" fill="#3b82f6" opacity="0.4"/></svg>
