<svg xmlns="http://www.w3.org/2000/svg" viewBox="0 0 400 300"><defs><linearGradient id="grad4" x1="0%" y1="0%" x2="100%" y2="100%"><stop offset="0%" style="stop-color:#2563eb;stop-opacity:1" /><stop offset="100%" style="stop-color:#3b82f6;stop-opacity:1" /></linearGradient></defs><rect x="60" y="220" width="60" height="20" fill="url(#grad4)" opacity="0.8"/><rect x="120" y="180" width="60" height="60" fill="url(#grad4)" opacity="0.8"/><rect x="180" y="140" width="60" height="100" fill="url(#grad4)" opacity="0.8"/><rect x="240" y="100" width="60" height="140" fill="url(#grad4)" opacity="0.8"/><circle cx="280" cy="70" r="18" fill="#2563eb" opacity="0.9"/><rect x="268" y="90" width="24" height="35" rx="3" fill="#2563eb" opacity="0.9"/><polygon points="340,50 345,65 360,67 350,77 353,92 340,84 327,92 330,77 320,67 335,65" fill="#fbbf24" opacity="0.8"/><polyline points="80,200 120,160 160,120 200,80 240,60" fill="none" stroke="#10b981" stroke-width="4" stroke-dasharray="8,4" opacity="0.6" stroke-linecap="round"/><polygon points="240,60 230,70 245,65 240,80" fill="#10b981" opacity="0.6"/></svg>
