<svg xmlns="http://www.w3.org/2000/svg" viewBox="0 0 400 300"><defs><linearGradient id="grad3" x1="0%" y1="0%" x2="100%" y2="100%"><stop offset="0%" style="stop-color:#3b82f6;stop-opacity:1" /><stop offset="100%" style="stop-color:#60a5fa;stop-opacity:1" /></linearGradient></defs><rect x="100" y="80" width="200" height="140" rx="8" fill="url(#grad3)" opacity="0.8"/><rect x="110" y="90" width="180" height="110" rx="3" fill="#fff" opacity="0.9"/><polyline points="130,180 160,150 190,160 220,130 250,140 280,110" fill="none" stroke="#2563eb" stroke-width="3" stroke-linecap="round"/><circle cx="130" cy="180" r="4" fill="#2563eb"/><circle cx="160" cy="150" r="4" fill="#2563eb"/><circle cx="190" cy="160" r="4" fill="#2563eb"/><circle cx="220" cy="130" r="4" fill="#2563eb"/><circle cx="250" cy="140" r="4" fill="#2563eb"/><circle cx="280" cy="110" r="4" fill="#2563eb"/><rect x="180" y="220" width="40" height="20" rx="2" fill="url(#grad3)" opacity="0.8"/><rect x="160" y="240" width="80" height="8" rx="4" fill="url(#grad3)" opacity="0.8"/><circle cx="60" cy="120" r="15" fill="#60a5fa" opacity="0.5"/><rect x="50" y="115" width="20" height="10" rx="2" fill="#fff" opacity="0.8"/><circle cx="340" cy="150" r="15" fill="#3b82f6" opacity="0.5"/><polygon points="340,142 335,152 345,152" fill="#fff" opacity="0.8"/></svg>
